<?xml version="1.0" standalone="no"?>
<!DOCTYPE svg PUBLIC "-//W3C//DTD SVG 20010904//EN"
 "http://www.w3.org/TR/2001/REC-SVG-20010904/DTD/svg10.dtd">
<svg version="1.0" xmlns="http://www.w3.org/2000/svg"
 width="376.000000pt" height="376.000000pt" viewBox="0 0 376.000000 376.000000"
 preserveAspectRatio="xMidYMid meet">
<metadata>
Created by potrace 1.11, written by Peter Selinger 2001-2013
</metadata>
<g transform="translate(0.000000,376.000000) scale(0.100000,-0.100000)"
fill="#000000" stroke="none">
<path d="M1827 3464 c-1 -1 -41 -4 -88 -8 -47 -4 -97 -9 -110 -11 -13 -3 -37
-8 -54 -11 -126 -22 -241 -61 -382 -129 -323 -154 -587 -418 -739 -740 -65
-136 -91 -214 -130 -390 -13 -60 -19 -148 -19 -300 0 -173 4 -221 25 -310 7
-27 13 -60 14 -71 6 -48 73 -225 121 -320 48 -95 136 -235 187 -297 36 -43
160 -168 209 -210 195 -167 478 -301 719 -342 19 -3 42 -8 50 -10 78 -21 379
-21 490 0 14 3 39 7 55 10 17 3 40 7 53 10 12 3 32 7 44 10 28 6 117 34 143
45 11 4 40 16 64 25 70 26 230 113 301 163 96 69 105 77 226 197 215 216 352
471 420 780 22 101 28 172 28 325 1 185 -7 246 -49 410 -27 103 -81 242 -128
330 -31 57 -131 214 -153 240 -85 98 -216 225 -289 279 -90 67 -220 151 -233
151 -4 0 -25 9 -46 20 -78 43 -274 108 -367 124 -19 3 -45 8 -59 11 -33 7
-297 24 -303 19z"/>
</g>
</svg>
